<svg id="86c4b5d6-bc12-4015-bb5a-ea92458fed94" data-name="Layer 1" xmlns="http://www.w3.org/2000/svg" width="790" height="310" viewBox="0 0 790 310"><title>Artboard 1</title><path d="M327.48,26.87h21.46v87.91h49.72v17.91H327.48Z"/><path d="M407.84,26.87H428V132.69H407.84Z"/><path d="M437,94.8c0-22.64,16.14-40.11,39.67-40.11s39.66,17.47,39.66,40.11-16.13,40.11-39.66,40.11S437,117.44,437,94.8Zm58.91,0c0-14.8-7-24.86-19.24-24.86-12.43,0-19.24,10.06-19.24,24.86s6.81,24.72,19.24,24.72C488.94,119.52,495.9,109.6,495.9,94.8Z"/><path d="M523.28,141.71h7.1c8,0,11.25-4.14,11.25-10.35,0-4.15-1.48-9-5.77-20.58l-20.43-54H536.6L547.84,91c2.37,7,4.89,16.58,4.89,16.58H553s2.08-9.62,4.44-16.58l10.66-34.18h20.27L561.9,134.61c-5.77,16.87-11.39,22.94-26.78,22.94H523.28Z"/><path d="M588.84,94.8c0-23.68,13.47-40.11,32.41-40.11,10.66,0,17.32,4.89,21.46,11.25h.44V26.87h20.13V132.69H643.89v-9.92h-.29c-4.44,7.25-12,12.14-22.65,12.14C601.86,134.91,588.84,119.37,588.84,94.8Zm54.76.45C643.6,80.74,638.86,71,626,71c-11.1,0-16.73,9.77-16.73,23.83,0,14.65,5.77,23.24,16.13,23.24C637.38,118,643.6,109.16,643.6,95.25Z"/><path d="M673.05,59.58c4.59-1.48,10.06-6.22,10.06-13.47h-9.76V26.87h20V44.33c0,13.47-10.36,20.58-20.28,22.2Z"/><path d="M690.22,108.12h18.64c1.34,8.73,7.55,12.58,16.58,12.58,8.88,0,13.91-3.4,13.91-8.73,0-7.25-9.62-8-20-10.07-13.61-2.66-26.93-6.36-26.93-22.94,0-16.42,13.61-24.27,30.93-24.27,20,0,31.08,9.92,32.56,25.16H737.72c-.88-8.14-6.06-11.1-14.65-11.1-7.84,0-13,3-13,8.44,0,6.51,10.06,7.1,20.87,9.32,12.72,2.67,26.78,6.22,26.78,24,0,15.24-13,24.42-32,24.42C703.68,134.91,691.4,124.25,690.22,108.12Z"/><path d="M327.48,167.87h21.46v87.91h49.72v17.91H327.48Z" style="fill:#1e35bf"/><path d="M453.27,265.25H453c-3.85,5.77-9.33,10.21-22.35,10.21-15.54,0-26.49-8.14-26.49-23.23,0-16.73,13.61-22,30.49-24.42C447.21,226,453,225,453,219.23c0-5.48-4.29-9-12.73-9-9.47,0-14.06,3.4-14.65,10.65H407.69c.59-13.32,10.51-25,32.71-25,22.79,0,32,10.21,32,28v38.63c0,5.77.89,9.18,2.67,10.51v.74H455.64C454.46,272.21,453.72,268.66,453.27,265.25Zm.15-18.35V235.5c-3.55,2.08-9,3.26-14.06,4.44-10.51,2.37-15.69,4.74-15.69,11.84s4.74,9.62,11.84,9.62C447.06,261.4,453.42,254.3,453.42,246.9Z" style="fill:#1e35bf"/><path d="M503.3,264.22H503v9.47H483.61V167.87h20.13v39.07h.44c4.15-6.36,10.66-11.25,21.17-11.25,19.09,0,32.7,16.43,32.7,40.11,0,24.57-13,40.11-32.11,40.11C515.28,275.91,507.74,271.32,503.3,264.22Zm34.33-28.42c0-14.06-5.62-23.83-16.87-23.83-12.73,0-17.46,10.22-17.46,24.28,0,13.91,6.95,22.79,18.2,22.79C531.86,259,537.63,250.45,537.63,235.8Z" style="fill:#1e35bf"/><path d="M130.58,149.79a31,31,0,0,0,60.95,8h37a31,31,0,1,0,0-16h-37a31.06,31.06,0,0,0-21.95-22V82.64a31,31,0,1,0-16,0v37.19A31,31,0,0,0,130.58,149.79Zm127.94-15a15,15,0,1,1-15,15A15,15,0,0,1,258.52,134.79Zm-81.94,15a15,15,0,1,1-15-15A15,15,0,0,1,176.58,149.79Zm-30-97.1a15,15,0,1,1,15,15A15,15,0,0,1,146.58,52.69Z"/><path d="M258.52,216.19A31,31,0,0,0,228.62,239H191.48a31,31,0,0,0-59.8,0H94.31a31.06,31.06,0,0,0-21.9-21.77V179.74a31,31,0,0,0,0-59.91V82.64a31,31,0,1,0-16,0v37.19a31,31,0,0,0,0,59.91v37.49a31,31,0,1,0,38,37.77h37.15a31,31,0,0,0,60,0h36.93a31,31,0,1,0,30-38.81ZM49.41,52.69a15,15,0,1,1,15,15A15,15,0,0,1,49.41,52.69Zm0,97.1a15,15,0,1,1,15,15A15,15,0,0,1,49.41,149.79Zm15,112.4a15,15,0,1,1,15-15A15,15,0,0,1,64.41,262.19Zm97.17,0a15,15,0,1,1,15-15A15,15,0,0,1,161.58,262.19Zm96.94,0a15,15,0,1,1,15-15A15,15,0,0,1,258.52,262.19Z"/></svg>